<?xml version="1.0" standalone="no"?><!DOCTYPE svg PUBLIC "-//W3C//DTD SVG 1.1//EN" "http://www.w3.org/Graphics/SVG/1.1/DTD/svg11.dtd"><svg t="1740659378902" class="icon" viewBox="0 0 1024 1024" version="1.1" xmlns="http://www.w3.org/2000/svg" p-id="1129" xmlns:xlink="http://www.w3.org/1999/xlink" width="200" height="200"><path d="M877.714286 365.714286C877.714286 163.7504 713.963886 0 512 0S146.285714 163.7504 146.285714 365.714286c0 183.285029 134.999771 334.6432 310.857143 361.142857L457.142857 804.571429l-164.571429 0 0 109.714286 164.571429 0 0 109.714286 109.714286 0 0-109.714286 164.571429 0 0-109.714286-164.571429 0 0-77.714286C742.714514 700.357486 877.714286 548.999314 877.714286 365.714286zM256 365.714286c0-141.143771 114.856229-256 256-256s256 114.856229 256 256-114.856229 256-256 256S256 506.858057 256 365.714286z" fill="#F69661" p-id="1130"></path></svg>