<?xml version="1.0" standalone="no"?><!DOCTYPE svg PUBLIC "-//W3C//DTD SVG 1.1//EN" "http://www.w3.org/Graphics/SVG/1.1/DTD/svg11.dtd"><svg t="1736073149957" class="icon" viewBox="0 0 1024 1024" version="1.1" xmlns="http://www.w3.org/2000/svg" p-id="8560" xmlns:xlink="http://www.w3.org/1999/xlink" width="200" height="200"><path d="M600.89 512.5l297.86-297.86c24.41-24.41 24.41-63.98 0-88.39-24.41-24.41-63.98-24.41-88.39 0L512.5 424.11 213.64 125.25c-24.41-24.41-63.98-24.41-88.39 0-24.41 24.41-24.41 63.98 0 88.39L424.11 512.5 126.25 810.36c-24.41 24.41-24.41 63.98 0 88.39 24.41 24.41 63.98 24.41 88.39 0L512.5 600.89l296.86 296.86c24.41 24.41 63.98 24.41 88.39 0 24.41-24.41 24.41-63.98 0-88.39L600.89 512.5z" p-id="8561" fill="#ffffff"></path></svg>