<svg t="1727939829066" class="icon" viewBox="0 0 1024 1024" version="1.1" xmlns="http://www.w3.org/2000/svg" p-id="857"
  xmlns:xlink="http://www.w3.org/1999/xlink" width="200" height="200">
  <path d="M0 0h1024v1024H0z" fill="#FFFFFF" p-id="858"></path>
  <path
    d="M806.4 299.669333A120.896 120.896 0 0 1 874.666667 408.533333V741.546667a120.896 120.896 0 0 1-120.896 120.874666H270.229333A120.896 120.896 0 0 1 149.333333 741.568V408.512a120.896 120.896 0 0 1 68.266667-108.842667l241.749333-116.949333a120.896 120.896 0 0 1 105.301334 0L806.4 299.669333z m-571.264 36.266667a80.597333 80.597333 0 0 0-45.504 72.576V741.546667a80.597333 80.597333 0 0 0 80.597333 80.597333h483.541334a80.597333 80.597333 0 0 0 80.597333-80.597333V408.512c0-30.933333-17.664-59.093333-45.504-72.554667l-241.770667-116.949333a80.704 80.704 0 0 0-70.186666 0l-241.770667 116.949333z"
    p-id="859"></path>
  <path
    d="M671.168 652.202667a20.138667 20.138667 0 0 1-9.344 26.901333c-56.106667 27.157333-102.442667 42.176-149.909333 42.304-47.552 0.149333-93.824-14.634667-149.888-42.389333a20.16 20.16 0 0 1 17.877333-36.096c53.525333 26.453333 93.290667 38.314667 131.904 38.186666 38.656-0.106667 78.592-12.202667 132.458667-38.272a20.138667 20.138667 0 0 1 26.901333 9.365334z"
    p-id="860"></path>
</svg>