<?xml version="1.0" standalone="no"?><!DOCTYPE svg PUBLIC "-//W3C//DTD SVG 1.1//EN" "http://www.w3.org/Graphics/SVG/1.1/DTD/svg11.dtd"><svg t="1736695174363" class="icon" viewBox="0 0 1024 1024" version="1.1" xmlns="http://www.w3.org/2000/svg" p-id="931" xmlns:xlink="http://www.w3.org/1999/xlink" width="200" height="200"><path d="M705.152 565.333333a235.306667 235.306667 0 0 1 229.888 185.173334l17.962667 82.368a96 96 0 0 1-93.802667 116.458666H164.8a96 96 0 0 1-93.802667-116.458666l17.962667-82.346667A235.306667 235.306667 0 0 1 318.848 565.333333h386.304z m0 64H318.848a171.306667 171.306667 0 0 0-167.36 134.826667l-17.962667 82.346667a32 32 0 0 0 31.274667 38.826666h694.4a32 32 0 0 0 31.274667-38.826666l-17.962667-82.346667a171.306667 171.306667 0 0 0-167.36-134.826667zM512 64c129.6 0 234.666667 105.066667 234.666667 234.666667s-105.066667 234.666667-234.666667 234.666666-234.666667-105.066667-234.666667-234.666666S382.4 64 512 64z m0 64a170.666667 170.666667 0 1 0 0 341.333333 170.666667 170.666667 0 0 0 0-341.333333z" fill="#515151" p-id="932"></path></svg>