<svg t="1727952982711" class="icon" viewBox="0 0 1024 1024" version="1.1" xmlns="http://www.w3.org/2000/svg" p-id="895"
  xmlns:xlink="http://www.w3.org/1999/xlink" width="200" height="200">
  <path
    d="M544 341.312a32 32 0 0 0-64 0V480H341.312a32 32 0 0 0 0 64H480v138.688a32 32 0 1 0 64 0V544h138.688a32 32 0 1 0 0-64H544V341.312z"
    p-id="896"></path>
  <path
    d="M514.432 74.688h-4.864c-93.44 0-166.912 0-224.192 7.68-58.752 7.872-105.344 24.448-141.952 61.056-36.672 36.608-53.12 83.2-61.056 141.952-7.68 57.28-7.68 130.688-7.68 224.192v4.864c0 93.44 0 166.912 7.68 224.192 7.872 58.752 24.384 105.344 61.056 141.952 36.608 36.608 83.2 53.12 141.952 61.056 57.28 7.68 130.688 7.68 224.192 7.68h4.864c93.44 0 166.912 0 224.192-7.68 58.752-7.872 105.344-24.384 141.952-61.056 36.608-36.608 53.12-83.2 61.056-141.952 7.68-57.28 7.68-130.688 7.68-224.192v-4.864c0-93.44 0-166.912-7.68-224.192-7.872-58.752-24.384-105.344-61.056-141.952-36.608-36.672-83.2-53.12-141.952-61.056-57.28-7.68-130.688-7.68-224.192-7.68z m-325.76 113.92c22.72-22.72 53.568-35.84 105.216-42.816 52.544-7.04 121.664-7.104 218.112-7.104s165.568 0 218.112 7.104c51.648 6.976 82.496 20.096 105.216 42.88 22.784 22.72 35.904 53.568 42.88 105.216 7.04 52.544 7.104 121.664 7.104 218.112s0 165.568-7.104 218.112c-6.976 51.648-20.096 82.496-42.88 105.216-22.72 22.784-53.568 35.904-105.216 42.88-52.544 7.04-121.664 7.104-218.112 7.104s-165.568 0-218.112-7.104c-51.648-6.976-82.496-20.096-105.216-42.88-22.784-22.72-35.904-53.568-42.88-105.216-7.04-52.544-7.104-121.664-7.104-218.112s0-165.568 7.104-218.112c6.976-51.648 20.096-82.496 42.88-105.216z"
    p-id="897"></path>
</svg>