<?xml version="1.0" standalone="no"?><!DOCTYPE svg PUBLIC "-//W3C//DTD SVG 1.1//EN" "http://www.w3.org/Graphics/SVG/1.1/DTD/svg11.dtd"><svg t="1736521856649" class="icon" viewBox="0 0 1024 1024" version="1.1" xmlns="http://www.w3.org/2000/svg" p-id="5980" xmlns:xlink="http://www.w3.org/1999/xlink" width="200" height="200"><path d="M512 74.666667c214.229333 0 401.493333 159.274667 436.885333 368a32 32 0 0 1-39.317333 36.373333l-170.666667-42.666667a32 32 0 0 1 15.530667-62.08l119.402667 29.824c-48.106667-151.125333-191.829333-262.101333-354.432-265.386666L512 138.666667c-185.024 0-341.376 135.466667-369.024 316.458666a32 32 0 0 1-63.274667-9.664C112.128 233.322667 295.253333 74.666667 512 74.666667zM512 949.376c-214.208 0-401.493333-159.274667-436.864-368a32 32 0 0 1 42.773333-35.285333l170.666667 64a32 32 0 0 1-22.464 59.925333l-113.429333-42.538667 2.154666 6.165334c52.181333 144.042667 192.106667 248.490667 349.781334 251.669333l7.402666 0.064c183.04 0 338.261333-132.629333 368.170667-311.146667a32 32 0 0 1 63.125333 10.581334c-35.050667 209.237333-216.874667 364.586667-431.296 364.586666z" fill="#515151" p-id="5981"></path></svg>